<svg version="1.2" xmlns="http://www.w3.org/2000/svg" viewBox="0 0 100 100" width="100" height="100">
	<title>1-svg</title>
	<style>
		.s0 { fill: #fefefe } 
	</style>
	<path id="Layer" fill-rule="evenodd" class="s0" d="m72 52h-4c-1.1 0-2-0.9-2-2 0-1.1 0.9-2 2-2h4c1.1 0 2 0.9 2 2 0 1.1-0.9 2-2 2zm-7.9-13.3c-0.7 0.8-2 0.8-2.8 0-0.8-0.8-0.8-2.1 0-2.8l2.8-2.9c0.8-0.7 2.1-0.7 2.9 0 0.7 0.8 0.7 2.1 0 2.9zm-14.2 23.3c-6.6 0-12-5.4-12-12 0-6.7 5.4-12 12-12 6.7 0 12 5.3 12 12 0 6.6-5.3 12-12 12zm0-20c-4.4 0-8 3.6-8 8 0 4.4 3.6 8 8 8 4.4 0 8-3.6 8-8 0-4.4-3.6-8-8-8zm0-8c-1.1 0-2-0.9-2-2v-4c0-1.1 0.9-2 2-2 1.1 0 2 0.9 2 2v4c0 1.1-0.9 2-2 2zm-14.1 4.7l-2.8-2.9c-0.8-0.7-0.8-2 0-2.8 0.7-0.8 2-0.8 2.8 0l2.8 2.8c0.8 0.8 0.8 2.1 0 2.9-0.8 0.7-2 0.7-2.8 0zm-1.9 11.3c0 1.1-0.9 2-2 2h-4c-1.1 0-2-0.9-2-2 0-1.1 0.9-2 2-2h4c1.1 0 2 0.9 2 2zm1.9 11.3c0.8-0.8 2-0.8 2.8 0 0.8 0.8 0.8 2 0 2.8l-2.8 2.8c-0.8 0.8-2.1 0.8-2.8 0-0.8-0.7-0.8-2 0-2.8zm14.1 4.7c1.1 0 2 0.9 2 2v4c0 1.1-0.9 2-2 2-1.1 0-2-0.9-2-2v-4c0-1.1 0.9-2 2-2zm14.1-4.7l2.9 2.8c0.7 0.8 0.7 2.1 0 2.9-0.8 0.7-2.1 0.7-2.9 0l-2.8-2.9c-0.8-0.7-0.8-2 0-2.8 0.8-0.8 2.1-0.8 2.8 0z"/>
</svg>