<svg version="1.2" xmlns="http://www.w3.org/2000/svg" viewBox="0 0 100 100" width="100" height="100">
	<title>11-svg</title>
	<style>
		.s0 { fill: #fefefe } 
	</style>
	<path id="Layer" fill-rule="evenodd" class="s0" d="m70 65.6h-40c-1.1 0-2-0.9-2-2 0-1.1 0.9-2 2-2h40c1.1 0 2 0.9 2 2 0 1.1-0.9 2-2 2zm0-8h-40c-1.1 0-2-0.9-2-2 0-1.1 0.9-2 2-2h40c1.1 0 2 0.9 2 2 0 1.1-0.9 2-2 2zm-10-12c-1.6 0-3.1 0.5-4.3 1.3-1.3-5.3-6-9.3-11.7-9.3-6.6 0-12 5.4-12 12h-4c0-8.8 7.2-16 16-16 6 0 11.2 3.4 14 8.2 0.6-0.1 1.3-0.2 2-0.2 5.2 0 9.7 3.4 11.3 8h-4.4c-1.4-2.3-3.9-4-6.9-4zm-30 24h40c1.1 0 2 0.9 2 2 0 1.1-0.9 2-2 2h-40c-1.1 0-2-0.9-2-2 0-1.1 0.9-2 2-2z"/>
</svg>