<svg version="1.2" xmlns="http://www.w3.org/2000/svg" viewBox="0 0 100 100" width="100" height="100">
	<title>15-svg</title>
	<style>
		.s0 { fill: #fefefe } 
	</style>
	<path id="Layer" fill-rule="evenodd" class="s0" d="m60 65.6q-0.4 0-1.1 0l3.6-4.4c3.2-1 5.5-4 5.5-7.6 0-4.4-3.6-8-8-8-1.6 0-3.1 0.5-4.3 1.3-1.3-5.3-6-9.3-11.7-9.3-6.6 0-12 5.4-12 12 0 5.5 3.6 10.1 8.6 11.5l-1.3 3.8c-6.6-2-11.3-8.1-11.3-15.3 0-8.8 7.2-16 16-16 6 0 11.2 3.4 14 8.2 0.6-0.1 1.3-0.2 2-0.2 6.6 0 12 5.4 12 12 0 6.7-5.4 12-12 12zm-12-14h10l-6 10h7l-13 16 3.6-12h-6.6z"/>
</svg>