<svg version="1.2" xmlns="http://www.w3.org/2000/svg" viewBox="0 0 100 100" width="100" height="100">
	<title>17-svg</title>
	<style>
		.s0 { fill: #fefefe } 
	</style>
	<path id="Layer" fill-rule="evenodd" class="s0" d="m80 43.6h-4c-1.1 0-2-0.9-2-2 0-1.1 0.9-2 2-2h4c1.1 0 2 0.9 2 2 0 1.1-0.9 2-2 2zm-7.9-13.3c-0.7 0.8-2 0.8-2.8 0-0.8-0.8-0.8-2 0-2.8l2.8-2.8c0.8-0.8 2.1-0.8 2.9 0 0.7 0.8 0.7 2 0 2.8zm-3 15.6c1.4 1.6 2.3 3.6 2.7 5.7h-0.1q0.2 1 0.2 2c0 6.6-5.3 12-12 12q-0.4 0-1 0l3.5-4.4c3.2-1.1 5.5-4.1 5.5-7.6q0-1-0.2-2c-0.9-3.4-4-6-7.8-6-1.6 0-3.1 0.5-4.3 1.3-1.2-5.3-6-9.3-11.7-9.3-6.6 0-12 5.4-12 12q0 1 0.2 2c0.8 4.6 4.1 8.2 8.4 9.5l-1.3 3.8c-5.9-1.8-10.3-7-11.1-13.3q-0.2-1-0.2-2c0-8.8 7.2-16 16-16q2.4 0 4.6 0.7c2.1-2.9 5.6-4.7 9.4-4.7 6.7 0 12 5.4 12 12 0 1.5-0.3 3-0.8 4.3zm-11.2-12.3c-2.2 0-4.2 0.9-5.6 2.4 2.3 1.4 4.3 3.4 5.6 5.8 0.7-0.1 1.3-0.2 2-0.2 2.2 0 4.1 0.6 5.9 1.5q0.1-0.7 0.1-1.5c0-4.4-3.6-8-8-8zm0-8c-1.1 0-2-0.9-2-2v-4c0-1.1 0.9-2 2-2 1.1 0 2 0.9 2 2v4c0 1.1-0.9 2-2 2zm-14.1 4.7l-2.8-2.8c-0.8-0.8-0.8-2.1 0-2.9 0.7-0.7 2-0.7 2.8 0l2.8 2.9c0.8 0.8 0.8 2 0 2.8-0.8 0.8-2 0.8-2.8 0zm4.1 21.3h10l-6 10h7l-13 16 3.6-12h-6.6z"/>
</svg>