<svg version="1.2" xmlns="http://www.w3.org/2000/svg" viewBox="0 0 100 100" width="100" height="100">
	<title>18-svg</title>
	<style>
		.s0 { fill: #fefefe } 
	</style>
	<path id="Layer" fill-rule="evenodd" class="s0" d="m63.9 64.9v-4.3c2.4-1.4 4-4 4-7 0-4.4-3.5-8-8-8-1.6 0-3 0.5-4.3 1.3-1.2-5.3-6-9.3-11.7-9.3-6.6 0-12 5.4-12 12 0 3.6 1.6 6.8 4 9v4.9c-4.7-2.8-8-7.9-8-13.9 0-8.8 7.2-16 16-16 6 0 11.3 3.4 14 8.2 0.7-0.1 1.3-0.2 2-0.2 6.7 0 12 5.4 12 12 0 5.3-3.3 9.7-8 11.3zm-22-11.3c1.1 0 2 0.9 2 2v16c0 1.1-0.9 2-2 2-1.1 0-2-0.9-2-2v-16c0-1.1 0.9-2 2-2zm8 4c1.1 0 2 0.9 2 2v16c0 1.1-0.9 2-2 2-1.1 0-2-0.9-2-2v-16c0-1.1 0.9-2 2-2zm8-4c1.1 0 2 0.9 2 2v16c0 1.1-0.9 2-2 2-1.1 0-2-0.9-2-2v-16c0-1.1 0.9-2 2-2z"/>
</svg>