<svg version="1.2" xmlns="http://www.w3.org/2000/svg" viewBox="0 0 100 100" width="100" height="100">
	<title>20-svg</title>
	<style>
		.s0 { fill: #fefefe } 
	</style>
	<g id="Layer">
		<g id="Layer">
			<path id="Layer" fill-rule="evenodd" class="s0" d="m71.9 53.6c0 5.3-3.3 9.7-8 11.3 0-1.3-0.4-2.6-1.2-3.8 3.1-1.1 5.2-4 5.2-7.5 0-4.4-3.5-8-8-8-1.6 0-3 0.5-4.3 1.3-1.2-5.3-6-9.3-11.7-9.3-6.6 0-12 5.4-12 12 0 4.5 2.5 8.4 6.2 10.5h-0.1c-1 1-1.6 2.2-1.9 3.5-4.9-2.8-8.2-8-8.2-14 0-8.8 7.2-16 16-16 6 0 11.3 3.4 14 8.2 0.7-0.1 1.3-0.2 2-0.2 6.7 0 12 5.4 12 12zm-26.8 9.4c1.1 1.1 1.1 3 0 4.2-1.2 1.2-3.1 1.2-4.3 0-1.1-1.2-1.1-3.1 0-4.2l2.1-2.1zm7 7.9c1.2 1.2 1.2 3.1 0 4.3-1.1 1.2-3 1.2-4.2 0-1.2-1.2-1.2-3.1 0-4.3l2.1-2.1zm7-8c1.2 1.2 1.2 3.1 0 4.3-1.1 1.1-3 1.1-4.2 0-1.2-1.2-1.2-3.1 0-4.3l2.1-2.1z"/>
		</g>
	</g>
</svg>