<svg version="1.2" xmlns="http://www.w3.org/2000/svg" viewBox="0 0 100 100" width="100" height="100">
	<title>22-svg</title>
	<style>
		.s0 { fill: #fefefe } 
	</style>
	<path id="Layer" fill-rule="evenodd" class="s0" d="m59.7 46.7l-2 1.2q0.3 1 0.3 2.1 0 1.1-0.3 2.1l2 1.2c0.9 0.5 1.2 1.7 0.7 2.7-0.6 1-1.8 1.3-2.7 0.7l-2-1.1c-1 1-2.3 1.8-3.7 2.1v2.3c0 1.1-0.9 2-2 2-1.1 0-2-0.9-2-2v-2.3c-1.4-0.3-2.7-1.1-3.7-2.1l-2 1.1c-0.9 0.6-2.1 0.3-2.7-0.7-0.5-1-0.2-2.2 0.7-2.7l2-1.2q-0.3-1-0.3-2.1 0-1.1 0.3-2.1l-2-1.2c-0.9-0.5-1.2-1.7-0.7-2.7 0.6-1 1.8-1.3 2.7-0.7l2 1.1c1-1 2.3-1.8 3.7-2.1v-2.3c0-1.1 0.9-2 2-2 1.1 0 2 0.9 2 2v2.3c1.4 0.3 2.7 1.1 3.7 2.1l2-1.1c0.9-0.6 2.1-0.3 2.7 0.7 0.5 1 0.2 2.2-0.7 2.7zm-9.7-0.7c-2.2 0-4 1.8-4 4 0 2.2 1.8 4 4 4 2.2 0 4-1.8 4-4 0-2.2-1.8-4-4-4z"/>
</svg>