<svg version="1.2" xmlns="http://www.w3.org/2000/svg" viewBox="0 0 100 100" width="100" height="100">
	<title>25-svg</title>
	<style>
		.s0 { fill: #fefefe } 
	</style>
	<path id="Layer" fill-rule="evenodd" class="s0" d="m62 65.5v-4.1c3.4-0.9 6-4 6-7.8 0-4.4-3.6-8-8-8-1.6 0-3.1 0.5-4.3 1.3-1.3-5.3-6-9.3-11.7-9.3-6.6 0-12 5.4-12 12 0 4.5 2.4 8.3 6 10.4v4.5c-5.9-2.4-10-8.1-10-14.9 0-8.8 7.2-16 16-16 6 0 11.2 3.4 14 8.2 0.6-0.1 1.3-0.2 2-0.2 6.6 0 12 5.4 12 12 0 6-4.3 10.9-10 11.9zm-18.9-5.9c0.5-0.9 1.7-1.2 2.7-0.7l2.2 1.3v-2.6c0-1.1 0.9-2 2-2 1.1 0 2 0.9 2 2v2.6l2.2-1.3c1-0.5 2.2-0.2 2.7 0.7 0.6 1 0.3 2.2-0.7 2.8l-2.2 1.2 2.2 1.3c1 0.6 1.3 1.8 0.7 2.7-0.5 1-1.7 1.3-2.7 0.8l-2.2-1.3v2.5c0 1.1-0.9 2-2 2-1.1 0-2-0.9-2-2v-2.5l-2.2 1.3c-1 0.5-2.2 0.2-2.7-0.8-0.6-0.9-0.3-2.1 0.7-2.7l2.2-1.3-2.2-1.2c-1-0.6-1.3-1.8-0.7-2.8zm6.9 6c1.1 0 2-0.9 2-2 0-1.1-0.9-2-2-2-1.1 0-2 0.9-2 2 0 1.1 0.9 2 2 2z"/>
</svg>