<svg version="1.2" xmlns="http://www.w3.org/2000/svg" viewBox="0 0 100 100" width="100" height="100">
	<title>27-svg</title>
	<style>
		.s0 { fill: #fefefe } 
	</style>
	<path id="Layer" fill-rule="evenodd" class="s0" d="m73 71.6c-1.1 0-2-0.9-2-2 0-1.1 0.9-2 2-2 1.1 0 2 0.9 2 2 0 1.1-0.9 2-2 2zm-9-6.7v-4.3c2.4-1.4 4-4 4-7 0-4.4-3.6-8-8-8-1.6 0-3.1 0.5-4.3 1.3-1.3-5.3-6-9.3-11.7-9.3-6.6 0-12 5.4-12 12 0 3.6 1.6 6.8 4 9v4.9c-4.8-2.8-8-7.9-8-13.9 0-8.8 7.2-16 16-16 6 0 11.2 3.4 14 8.2 0.6-0.1 1.3-0.2 2-0.2 6.6 0 12 5.4 12 12 0 5.3-3.3 9.7-8 11.3zm-33 7.7c1.1 0 2 0.9 2 2 0 1.1-0.9 2-2 2-1.1 0-2-0.9-2-2 0-1.1 0.9-2 2-2zm10-17c0-1.1-0.1-2 1-2 1.1 0 1 0.9 1 2v24h-2c0-2.2-1.8-4-4-4v-2c1.5 0 2.9 0.6 4 1.6zm9 14c-1.1 0-1-0.9-1-2v-8c0-1.1-0.1-2 1-2 1.1 0 1 0.9 1 2v8c0 1.1 0.1 2-1 2zm0 4c1.1 0 2 0.9 2 2 0 1.1-0.9 2-2 2-1.1 0-2-0.9-2-2 0-1.1 0.9-2 2-2zm8-20c1.1 0 1 0.9 1 2v18c1.8-2.4 4.7-4 8-4v2c-4.4 0-8 3.6-8 8h-2q0-0.4 0-0.8c0-0.3 0-0.8 0-1.2v-22c0-1.1-0.1-2 1-2z"/>
</svg>