<svg version="1.2" xmlns="http://www.w3.org/2000/svg" viewBox="0 0 100 100" width="100" height="100">
	<title>3-svg</title>
	<style>
		.s0 { fill: #fefefe } 
	</style>
	<path id="Layer" fill-rule="evenodd" class="s0" d="m79.9 43.6h-4c-1.1 0-2-0.9-2-2 0-1.1 0.9-2 2-2h4c1.1 0 2 0.9 2 2 0 1.1-0.9 2-2 2zm-7.8-13.3c-0.8 0.8-2.1 0.8-2.8 0-0.8-0.8-0.8-2 0-2.8l2.8-2.8c0.8-0.8 2-0.8 2.8 0 0.8 0.8 0.8 2 0 2.8zm-2.9 15.6c1.7 2.1 2.8 4.8 2.8 7.7 0 6.6-5.4 12-12 12-2.8 0-12.8 0-16 0-8.9 0-16-7.2-16-16 0-8.8 7.1-16 16-16q2.3 0 4.5 0.7c2.2-2.9 5.6-4.7 9.5-4.7 6.6 0 12 5.4 12 12 0 1.5-0.3 3-0.8 4.3zm-37.2 3.7c0 6.6 5.3 12 12 12 3.6 0 13 0 16 0 4.4 0 8-3.6 8-8 0-4.4-3.6-8-8-8-1.6 0-3.1 0.5-4.4 1.3-1.2-5.3-5.9-9.3-11.6-9.3-6.7 0-12 5.4-12 12zm26-16c-2.2 0-4.2 0.9-5.7 2.4 2.3 1.4 4.3 3.4 5.6 5.8 0.7-0.1 1.4-0.2 2.1-0.2 2.1 0 4.1 0.6 5.8 1.5q0.2-0.7 0.2-1.5c0-4.4-3.6-8-8-8zm0-8c-1.1 0-2-0.9-2-2v-4c0-1.1 0.9-2 2-2 1.1 0 2 0.9 2 2v4c0 1.1-0.9 2-2 2zm-14.2 4.7l-2.8-2.8c-0.8-0.8-0.8-2.1 0-2.9 0.8-0.7 2.1-0.7 2.8 0l2.9 2.9c0.7 0.8 0.7 2 0 2.8-0.8 0.8-2.1 0.8-2.9 0z"/>
</svg>