<svg version="1.2" xmlns="http://www.w3.org/2000/svg" viewBox="0 0 100 100" width="100" height="100">
	<title>30-svg</title>
	<style>
		.s0 { fill: #fefefe } 
	</style>
	<path id="Layer" fill-rule="evenodd" class="s0" d="m50 67.9c-4.4 0-8-3.6-8-8 0-2.1 0.8-3.9 2-5.3v-16.7c0-3.3 2.7-6 6-6 3.3 0 6 2.7 6 6v16.7c1.2 1.4 2 3.2 2 5.3 0 4.4-3.6 8-8 8zm2-11.5v-18.5c0-1.1-0.9-2-2-2-1.1 0-2 0.9-2 2v18.5c-1.2 0.7-2 2-2 3.5 0 2.2 1.8 4 4 4 2.2 0 4-1.8 4-4 0-1.5-0.8-2.8-2-3.5zm-2 6.5c-1.7 0-3-1.4-3-3 0-1.3 0.8-2.4 2-2.8v-19.2c0-0.6 0.4-1 1-1 0.6 0 1 0.4 1 1v19.2c1.2 0.4 2 1.5 2 2.8 0 1.6-1.3 3-3 3z"/>
</svg>