<svg version="1.2" xmlns="http://www.w3.org/2000/svg" viewBox="0 0 100 100" width="100" height="100">
	<title>31-svg</title>
	<style>
		.s0 { fill: #fefefe } 
	</style>
	<path id="Layer" fill-rule="evenodd" class="s0" d="m50 68c-4.4 0-8-3.6-8-8 0-2 0.8-3.9 2-5.3v-16.7c0-3.3 2.7-6 6-6 3.3 0 6 2.7 6 6v16.7c1.2 1.4 2 3.3 2 5.3 0 4.4-3.6 8-8 8zm2-11.4v-18.6c0-1.1-0.9-2-2-2-1.1 0-2 0.9-2 2v18.6c-1.2 0.6-2 1.9-2 3.4 0 2.2 1.8 4 4 4 2.2 0 4-1.8 4-4 0-1.5-0.8-2.8-2-3.4zm-2 6.4c-1.7 0-3-1.3-3-3 0-1.7 1.3-3 3-3 1.7 0 3 1.3 3 3 0 1.7-1.3 3-3 3z"/>
</svg>