<svg version="1.2" xmlns="http://www.w3.org/2000/svg" viewBox="0 0 100 100" width="100" height="100">
	<title>32-svg</title>
	<style>
		.s0 { fill: #fefefe } 
	</style>
	<path id="Layer" fill-rule="evenodd" class="s0" d="m66 52h-3c-1.1 0-2-0.9-2-2 0-1.1 0.9-2 2-2h3c1.1 0 2-0.9 2-2 0-1.1-0.9-2-2-2-1.1 0-2-0.9-2-2 0-1.1 0.9-2 2-2q0.2 0 0.4 0c3.1 0.3 5.6 2.8 5.6 6 0 3.3-2.7 6-6 6zm-4-10c0-3.2-2.5-5.7-5.6-6q-0.2 0-0.4 0c-1.1 0-2 0.9-2 2 0 1.1 0.9 2 2 2 1.1 0 2 0.9 2 2 0 1.1-0.9 2-2 2h-22q-0.2 0-0.4 0c-3.1 0.3-5.6 2.8-5.6 6 0 3.3 2.7 6 6 6h22c1.1 0 2 0.9 2 2 0 1.1-0.9 2-2 2-1.1 0-2 0.9-2 2 0 1.1 0.9 2 2 2q0.2 0 0.4 0c3.1-0.3 5.6-2.8 5.6-6 0-3.3-2.7-6-6-6h-22c-1.1 0-2-0.9-2-2 0-1.1 0.9-2 2-2h22c3.3 0 6-2.7 6-6z"/>
</svg>