<svg version="1.2" xmlns="http://www.w3.org/2000/svg" viewBox="0 0 100 100" width="100" height="100">
	<title>36-svg</title>
	<style>
		.s0 { fill: #fefefe } 
	</style>
	<path id="Layer" fill-rule="evenodd" class="s0" d="m69.8 46.8c1.3 1.9 2.1 4.3 2.1 6.8 0 6.7-5.3 12-12 12-2.7 0-12.8 0-16 0-8.8 0-16-7.1-16-16 0-8.8 7.2-16 16-16 2 0 4 0.4 5.7 1.1 1.7-4.7 6.1-8.1 11.3-8.1q1.2 0 2.3 0.3-0.3 0.8-0.3 1.7c0 4.5 3.6 8 8 8q1 0 1.8-0.2 0.2 1.1 0.2 2.2c0 3.2-1.2 6-3.1 8.2zm-37.9 2.8c0 6.7 5.4 12 12 12 3.7 0 13 0 16 0 4.5 0 8-3.5 8-8 0-4.4-3.5-8-8-8-1.6 0-3 0.5-4.3 1.3-1.2-5.3-6-9.3-11.7-9.3-6.6 0-12 5.4-12 12zm27.3-18.7c-2.9 0.6-5.2 2.9-6 5.7 1.9 1.4 3.6 3.2 4.7 5.2 0.7-0.1 1.3-0.2 2-0.2 2.7 0 5.1 0.9 7 2.3 0.9-1 1.5-2.2 1.8-3.5-4.8-0.9-8.6-4.7-9.5-9.5zm-7.7 4.6q0 0 0 0 0 0 0 0z"/>
</svg>