<svg version="1.2" xmlns="http://www.w3.org/2000/svg" viewBox="0 0 100 100" width="100" height="100">
	<title>37-svg</title>
	<style>
		.s0 { fill: #fefefe } 
	</style>
	<path id="Layer" fill-rule="evenodd" class="s0" d="m69.8 46.8q0.9 1.3 1.5 2.8h-4.4c-1.4-2.3-3.9-4-6.9-4-1.6 0-3.1 0.5-4.3 1.3-1.3-5.3-6-9.3-11.7-9.3-6.6 0-12 5.4-12 12h-4c0-8.8 7.2-16 16-16 2 0 3.9 0.4 5.7 1.1 1.6-4.7 6.1-8.1 11.3-8.1q1.1 0.1 2.2 0.3-0.2 0.8-0.2 1.7c0 4.5 3.6 8 8 8q0.9 0 1.8-0.2 0.2 1.1 0.2 2.2c0 3.2-1.2 6-3.2 8.2zm-10.6-15.9c-2.9 0.6-5.2 2.9-5.9 5.7 1.9 1.4 3.5 3.2 4.7 5.2 0.6-0.1 1.3-0.2 2-0.2 2.6 0 5 0.9 7 2.3 0.9-1 1.5-2.2 1.8-3.5-4.9-0.9-8.7-4.7-9.6-9.5zm-29.2 22.7h40c1.1 0 2 0.9 2 2 0 1.1-0.9 2-2 2h-40c-1.1 0-2-0.9-2-2 0-1.1 0.9-2 2-2zm0 8h40c1.1 0 2 0.9 2 2 0 1.1-0.9 2-2 2h-40c-1.1 0-2-0.9-2-2 0-1.1 0.9-2 2-2zm0 8h40c1.1 0 2 0.9 2 2 0 1.1-0.9 2-2 2h-40c-1.1 0-2-0.9-2-2 0-1.1 0.9-2 2-2z"/>
</svg>