<svg version="1.2" xmlns="http://www.w3.org/2000/svg" viewBox="0 0 100 100" width="100" height="100">
	<title>43-svg</title>
	<style>
		.s0 { fill: #fefefe } 
	</style>
	<path id="Layer" fill-rule="evenodd" class="s0" d="m69.8 46.8c1.4 1.9 2.2 4.3 2.2 6.8 0 5.3-3.3 9.7-8 11.3v-4.3c2.4-1.4 4-4 4-7 0-4.4-3.6-8-8-8-1.6 0-3.1 0.5-4.3 1.3-1.3-5.3-6-9.3-11.7-9.3-6.6 0-12 5.4-12 12 0 3.6 1.6 6.8 4 9v4.9c-4.8-2.8-8-7.9-8-13.9 0-8.8 7.2-16 16-16 2 0 3.9 0.4 5.7 1.1 1.6-4.7 6.1-8.1 11.3-8.1q1.1 0 2.2 0.3-0.2 0.8-0.2 1.7c0 4.5 3.6 8 8 8q0.9 0 1.8-0.2 0.2 1.1 0.2 2.2c0 3.2-1.2 6-3.2 8.2zm-10.6-15.9c-2.9 0.6-5.2 2.9-5.9 5.7 1.9 1.4 3.5 3.2 4.7 5.2 0.6-0.1 1.3-0.2 2-0.2 2.6 0 5 0.9 7 2.3 0.9-1 1.5-2.2 1.8-3.5-4.9-0.9-8.7-4.7-9.6-9.5zm-16.1 28.7c0.5-0.9 1.7-1.2 2.7-0.7l2.2 1.3v-2.6c0-1.1 0.9-2 2-2 1.1 0 2 0.9 2 2v2.6l2.2-1.3c1-0.5 2.2-0.2 2.7 0.7 0.6 1 0.3 2.2-0.7 2.8l-2.2 1.2 2.2 1.3c1 0.6 1.3 1.8 0.7 2.7-0.5 1-1.7 1.3-2.7 0.8l-2.2-1.3v2.5c0 1.1-0.9 2-2 2-1.1 0-2-0.9-2-2v-2.5l-2.2 1.3c-1 0.5-2.2 0.2-2.7-0.8-0.6-0.9-0.3-2.1 0.7-2.7l2.2-1.3-2.2-1.2c-1-0.6-1.3-1.8-0.7-2.8zm6.9 6c1.1 0 2-0.9 2-2 0-1.1-0.9-2-2-2-1.1 0-2 0.9-2 2 0 1.1 0.9 2 2 2z"/>
</svg>