<svg version="1.2" xmlns="http://www.w3.org/2000/svg" viewBox="0 0 100 100" width="100" height="100">
	<title>7-svg</title>
	<style>
		.s0 { fill: #fefefe } 
	</style>
	<path id="Layer" fill-rule="evenodd" class="s0" d="m43.9 65.6c-8.8 0-16-7.1-16-16 0-8.8 7.2-16 16-16 6 0 11.3 3.4 14 8.2 0.7-0.1 1.3-0.2 2-0.2 6.7 0 12 5.4 12 12 0 6.7-5.3 12-12 12-2.7 0-12.8 0-16 0zm16-4c4.5 0 8-3.5 8-8 0-4.4-3.5-8-8-8-1.6 0-3 0.5-4.3 1.3-1.2-5.3-6-9.3-11.7-9.3-6.6 0-12 5.4-12 12 0 6.7 5.4 12 12 12 3.7 0 13 0 16 0z"/>
</svg>